<svg height="276" viewBox="-6 -6 172 92" width="516" xmlns="http://www.w3.org/2000/svg"><rect fill="#1a1a1a" height="92" rx="4" width="172" x="-6" y="-6"/><path d="m0 0h160v80h-160z" shape-rendering="crispEdges"/><text dominant-baseline="hanging" fill="#f8fcf8" font-family="'Courier New', Consolas, 'Liberation Mono', monospace" font-size="14" lengthAdjust="spacingAndGlyphs" textLength="88" x="2" y="1">raspberrypi</text><text dominant-baseline="hanging" fill="#b080f8" font-family="'Courier New', Consolas, 'Liberation Mono', monospace" font-size="9" lengthAdjust="spacingAndGlyphs" textLength="84" x="2" y="19">192.168.1.42</text><path d="m0 30h160v1h-160z" fill="#0000f8" shape-rendering="crispEdges"/><g fill="#f80000" shape-rendering="crispEdges"><path d="m154 5h2v1h-2z"/><path d="m153 6h4v1h-4z"/><path d="m152 7h6v1h-6z"/><path d="m152 8h6v1h-6z"/><path d="m153 9h4v1h-4z"/><path d="m154 10h2v1h-2z"/></g><g font-family="'Courier New', Consolas, 'Liberation Mono', monospace" font-size="9"><text dominant-baseline="hanging" fill="#f8fc00" lengthAdjust="spacingAndGlyphs" textLength="14" x="144" y="20">^3</text><text dominant-baseline="hanging" fill="#f8fcf8" lengthAdjust="spacingAndGlyphs" textLength="28" x="2" y="35">CPU:</text><text dominant-baseline="hanging" fill="#00fc00" lengthAdjust="spacingAndGlyphs" textLength="21" x="37" y="35">12%</text></g><path d="m2 46h7v6h-7z" fill="#00fc00" shape-rendering="crispEdges"/><path d="m9 46h58v6h-58z" fill="#808080" shape-rendering="crispEdges"/><text dominant-baseline="hanging" fill="#f8fcf8" font-family="'Courier New', Consolas, 'Liberation Mono', monospace" font-size="9" lengthAdjust="spacingAndGlyphs" textLength="35" x="84" y="35">TEMP:</text><text dominant-baseline="hanging" fill="#00fc00" font-family="'Courier New', Consolas, 'Liberation Mono', monospace" font-size="9" lengthAdjust="spacingAndGlyphs" textLength="21" x="126" y="35">42C</text><path d="m84 46h27v6h-27z" fill="#00fc00" shape-rendering="crispEdges"/><path d="m111 46h38v6h-38z" fill="#808080" shape-rendering="crispEdges"/><text dominant-baseline="hanging" fill="#f8fcf8" font-family="'Courier New', Consolas, 'Liberation Mono', monospace" font-size="9" lengthAdjust="spacingAndGlyphs" textLength="28" x="2" y="57">RAM:</text><text dominant-baseline="hanging" fill="#00fc00" font-family="'Courier New', Consolas, 'Liberation Mono', monospace" font-size="9" lengthAdjust="spacingAndGlyphs" textLength="21" x="37" y="57">34%</text><path d="m2 68h22v6h-22z" fill="#00fc00" shape-rendering="crispEdges"/><path d="m24 68h43v6h-43z" fill="#808080" shape-rendering="crispEdges"/><text dominant-baseline="hanging" fill="#f8fcf8" font-family="'Courier New', Consolas, 'Liberation Mono', monospace" font-size="9" lengthAdjust="spacingAndGlyphs" textLength="35" x="84" y="57">DISK:</text><text dominant-baseline="hanging" fill="#f8fc00" font-family="'Courier New', Consolas, 'Liberation Mono', monospace" font-size="9" lengthAdjust="spacingAndGlyphs" textLength="21" x="126" y="57">67%</text><path d="m84 68h43v6h-43z" fill="#f8fc00" shape-rendering="crispEdges"/><path d="m127 68h22v6h-22z" fill="#808080" shape-rendering="crispEdges"/></svg>